<?xml version="1.0" encoding="utf-8"?>
<!-- Generator: Adobe Illustrator 22.0.1, SVG Export Plug-In . SVG Version: 6.00 Build 0)  -->
<svg version="1.0" id="Layer_1" xmlns="http://www.w3.org/2000/svg" xmlns:xlink="http://www.w3.org/1999/xlink" x="0px" y="0px"
	 viewBox="0 0 772.9 160.3" style="enable-background:new 0 0 772.9 160.3;" xml:space="preserve">
<style type="text/css">
	.st0{fill:#054F97;}
	.st1{fill:#EB7224;}
</style>
<g>
	<g>
		<g>
			<path class="st0" d="M709,89.5c0-19.7-11.3-32.4-30.5-32.4c-15.8,0-30.4,13.1-30.4,32.8c0,21.2,15,33.5,31.9,33.5
				c15,0,24.9-8.8,28.2-19.7l-12.6-4c-2.1,6.2-6.7,10.9-15.6,10.9c-9.2,0-16.7-6.3-17.1-15.8h45.6C708.8,94.5,709,91.9,709,89.5z
				 M663.4,83.3c0.5-6.7,5.9-13.8,15.3-13.8c10.3,0,15.1,6.5,15.4,13.8H663.4z"/>
		</g>
		<g>
			<path class="st0" d="M745.2,84.4l-9.9-1.9c-4-0.8-6.5-3.2-6.5-6.5c0-3.8,3.9-7.2,9.3-7.2c8.7,0,11.4,5.8,12,9.4l13-3.6
				c-1.1-6.2-6.9-17.4-25-17.4c-13.4,0-23.8,9.2-23.8,20.1c0,8.6,6,15.8,17.4,18.2l9.6,2c5.2,1,7.6,3.6,7.6,6.9
				c0,3.8-3.3,7.2-9.7,7.2c-8.3,0-12.6-5-13.2-10.6l-13.4,3.6c0.8,7.1,8,18.8,26.8,18.8c16.5,0,24.5-10.5,24.5-20
				C763.9,94.1,757.5,86.9,745.2,84.4z"/>
		</g>
		<g>
			<path class="st0" d="M190.2,51.7v5.7h12.9v15.6h-12.9v50h-17.4v-50h-11.4V57.5h11.4v-6.2c0-16.1,10.1-26.4,25.7-26.4
				c4.1,0,7.7,0.8,9.1,1.4V41c-1.7-0.5-3.8-0.7-6.2-0.7C198.1,40.3,190.2,41.4,190.2,51.7z"/>
		</g>
		<g>
			<path class="st0" d="M234.5,37.2c0,5.6-4.5,10-10.2,10c-5.5,0-10-4.5-10-10c0-5.6,4.5-10.2,10-10.2
				C230,27.1,234.5,31.6,234.5,37.2z"/>
		</g>
		<g>
			<rect x="215.9" y="57.5" class="st0" width="17.1" height="65.7"/>
		</g>
		<g>
			<rect x="498.5" y="57.5" class="st0" width="17.1" height="65.7"/>
		</g>
		<g>
			<path class="st0" d="M517.1,37.2c0,5.6-4.5,10-10.2,10c-5.5,0-10-4.5-10-10c0-5.6,4.5-10.2,10-10.2
				C512.6,27.1,517.1,31.6,517.1,37.2z"/>
		</g>
		<g>
			<rect x="389.4" y="81.2" class="st0" width="27.4" height="15.3"/>
		</g>
		<g>
			<polygon class="st0" points="576.9,70.5 542.8,109.7 576.9,109.7 576.9,123.1 524.1,123.1 524.1,109.7 557.8,70.9 524.1,70.9 
				524.1,57.5 576.9,57.5 			"/>
		</g>
		<g>
			<path class="st0" d="M643.3,85.9v37.1H628V85.6c0-12-7.5-14.5-13.7-14.5c-8.4,0-13.8,6.1-13.8,15.4v36.6h-15.8l-0.2-65.6H600v5
				l0.4-0.4c4.2-4.4,11.1-5.2,15.7-5.2c0.5,0,1,0,1.5,0c8,0.3,14.2,2.7,18.5,7.1C640.8,68.9,643.3,76.3,643.3,85.9z"/>
		</g>
		<g>
			<path class="st0" d="M347.3,56.9c-18.3,0-33.1,14.9-33.1,33.1c0,18.3,14.9,33.1,33.1,33.1c18.3,0,33.1-14.9,33.1-33.1
				C380.4,71.7,365.6,56.9,347.3,56.9z M347.3,108.3c-10.1,0-18.3-8.2-18.3-18.3c0-10.1,8.2-18.3,18.3-18.3
				c10.1,0,18.3,8.2,18.3,18.3C365.7,100.1,357.4,108.3,347.3,108.3z"/>
		</g>
		<g>
			<path class="st0" d="M307.3,88.3V27.1h-17.1V61l-0.3-0.2c-4.8-2.6-10.2-4-15.7-4C255.9,56.9,241,71.7,241,90
				c0,18.3,14.9,33.1,33.1,33.1c5.5,0,10.9-1.4,15.7-4l0.3-0.2v4.1h17.1V91.7c0-0.6,0-1.1,0-1.7C307.3,89.4,307.3,88.8,307.3,88.3z
				 M290.2,99c-3.3,5.8-9.4,9.3-16,9.3c-10.1,0-18.3-8.2-18.3-18.3c0-10.1,8.2-18.3,18.3-18.3c6.6,0,12.7,3.6,16,9.3
				c1.5,2.7,2.4,5.8,2.4,9C292.5,93.2,291.7,96.3,290.2,99z"/>
		</g>
		<g>
			<path class="st0" d="M459.1,56.9c-5.5,0-10.9,1.4-15.7,4L443,61V27.1h-17.1v96.1H443V119l0.3,0.2c4.8,2.6,10.3,4,15.7,4
				c18.3,0,33.1-14.9,33.1-33.1C492.2,71.7,477.3,56.9,459.1,56.9z M459.1,108.3c-6.6,0-12.8-3.6-16-9.4c-1.5-2.7-2.3-5.8-2.3-8.9
				c0-3.1,0.8-6.2,2.3-8.9c3.2-5.8,9.4-9.4,16-9.4c10.1,0,18.3,8.2,18.3,18.3C477.4,100.1,469.2,108.3,459.1,108.3z"/>
		</g>
	</g>
	<g>
		<path class="st0" d="M89.4,66.9c4.8-6.2,7.5-13.8,7.5-21.7C96.8,26.4,82.1,11,63.4,10L62.3,10v19.3l0.9,0.1
			c8.1,0.8,14.3,7.6,14.3,15.8c0,8.2-6.1,15-14.3,15.8l-0.9,0.1v19.3H65c3.4,0,8.3,0.6,11.4,2c6.9,3.1,11.9,9.2,11.9,17.2
			c0,10.6-8.9,19.2-19.5,19.2H39.9v19.3h29.2c21.3,0,38.6-17.3,38.6-38.6C107.6,86.3,100.7,73.9,89.4,66.9z"/>
		<polygon class="st1" points="54.6,61.1 31.9,61.1 31.9,29.3 54.6,29.3 54.6,10 12.6,10 12.6,138.2 31.9,138.2 31.9,80.4 
			54.6,80.4 		"/>
	</g>
</g>
</svg>
