<?xml version="1.0" encoding="utf-8"?>
<!-- Generator: Adobe Illustrator 21.0.0, SVG Export Plug-In . SVG Version: 6.00 Build 0)  -->
<svg version="1.1" id="Layer_1" xmlns="http://www.w3.org/2000/svg" xmlns:xlink="http://www.w3.org/1999/xlink" x="0px" y="0px"
	 width="700px" height="300px" viewBox="0 0 700 300" style="enable-background:new 0 0 700 300;" xml:space="preserve">
<style type="text/css">
	.st0{fill:#000000;}
	.st01{fill:#ffffff;}
	.st1{fill:#EFD373;}
	.st2{fill:url(#SVGID_1_);}
	.st3{fill:url(#SVGID_2_);}
	.st4{fill:url(#SVGID_3_);}
	.st5{fill:url(#SVGID_4_);}
	.st6{fill:url(#SVGID_5_);}
	.st7{fill:url(#SVGID_6_);}
	.st8{fill:url(#SVGID_7_);}
	.st9{fill:url(#SVGID_8_);}
	.st10{fill:#1A4780;}
	.st11{fill:#ffffff;}
</style>
<g>
	<path class="st0" d="M333.4,128.6c-4.6-4.4-6.9-10.7-6.9-18.6V76.7h11.7v33.7c0,9.1,5.2,13.8,12.8,13.8c7.6,0,12.9-4.7,12.9-13.8
		V76.7h11.8V110c0,8-2.3,14.2-7,18.6c-4.6,4.4-10.5,6.6-17.7,6.6C343.9,135.3,338,133,333.4,128.6z"/>
	<path class="st0" d="M383.8,134.1v-7.6l20.7-23.6h-19.4v-9.7h35.2v7.9l-20.7,23.4h22.1v9.7H383.8z"/>
	<path class="st0" d="M451.6,134.1V76.7h42.1v10.6h-30.3v11.1h24.4v10.4h-24.4v14.8h31.2v10.6H451.6z"/>
	<path class="st0" d="M513.5,93.2l8.2,11.5l8.3-11.5h12.8l-14.4,19.5l15.6,21.4h-13l-9.5-13.1l-9.6,13.1h-12.8l15.7-21.3l-14.3-19.6
		H513.5z"/>
	<path class="st0" d="M589.9,98.4c3.7,4.1,5.5,9.2,5.5,15.3c0,6.1-1.8,11.2-5.5,15.3c-3.6,4.1-8.2,6.2-13.8,6.2
		c-5.8,0-10.3-2.1-13.4-6.1v21.4h-11.6V93.2h11.6v5c3-4,7.5-6.1,13.4-6.1C581.7,92.1,586.2,94.2,589.9,98.4z M562.6,108.4V119
		c1.9,3.5,5.7,6.1,10.2,6.1c3.2,0,5.9-1.1,8-3.3c2-2.2,3.1-4.9,3.1-8.1c0-3.3-1.1-6-3.1-8.2c-2.1-2.2-4.8-3.3-8-3.3
		C568.3,102.2,564.5,104.8,562.6,108.4z"/>
	<path class="st0" d="M607.6,98.4c4.3-4.2,9.7-6.2,16.3-6.2c6.6,0,12.1,2,16.3,6.2c4.3,4.2,6.4,9.3,6.4,15.3
		c0,6.1-2.1,11.2-6.4,15.4c-4.3,4.1-9.7,6.2-16.3,6.2c-6.6,0-12.1-2.1-16.3-6.2c-4.3-4.2-6.4-9.3-6.4-15.4
		C601.2,107.5,603.3,102.5,607.6,98.4z M623.9,125.1c3.3,0,6-1.1,8.1-3.3s3.2-4.9,3.2-8.2s-1.1-6-3.2-8.1c-2.1-2.2-4.8-3.3-8.1-3.3
		s-6,1.1-8.1,3.3c-2.1,2.1-3.2,4.8-3.2,8.1s1.1,6,3.2,8.2S620.6,125.1,623.9,125.1z"/>
	<path class="st0" d="M334.1,209.7c-5.9-5.7-8.9-12.8-8.9-21.5c0-8.8,3-15.9,8.8-21.5c5.9-5.6,13.4-8.4,22.3-8.4
		c5.7,0,10.7,1.2,15.2,3.6v11.9c-4.4-3-9.4-4.4-15.1-4.4c-5.5,0-10,1.8-13.7,5.3c-3.6,3.5-5.4,8-5.4,13.4s1.9,10,5.6,13.5
		c3.7,3.5,8.4,5.2,14,5.2c6.2,0,11.5-1.6,15.7-5v11.9c-4.7,2.8-10.1,4.2-16.3,4.2C347.4,218.1,340,215.3,334.1,209.7z"/>
	<path class="st0" d="M385.9,212.1c-4.3-3.9-6.6-9.2-6.6-15.7c0-6.1,2-11.2,5.9-15.3c3.9-4.2,9.1-6.2,15.4-6.2
		c6,0,10.7,2.1,14.2,6.3c3.5,4.2,5.3,9.3,5.3,15.3v3h-29.4c1.2,5.6,6.5,8.5,13.7,8.5c4.6,0,8.9-1.2,13.1-3.6v9.3
		c-3.7,2.8-8.9,4.2-15.6,4.2C395.7,218,390.3,216,385.9,212.1z M408.8,192.2c-0.2-4.5-3.4-8.2-8.6-8.2c-5.2,0-8.8,3.4-9.3,8.2H408.8
		z"/>
	<path class="st0" d="M440.6,216.9h-11.6V176h11.6v4.9c3.7-4,8.2-6,13.7-6c9.5,0,14.9,6.4,14.9,16.9v25.1h-11.6v-22.7
		c0-6.3-3.5-8.7-7.8-8.7c-3.6,0-7.3,2.3-9.3,5.3V216.9z"/>
	<path class="st0" d="M483.6,185.7h-8V176h8v-11.2h11.6V176h11.6v9.7h-11.6v16.2c0,4,1.6,5.7,5.6,5.7c2,0,4-0.5,6-1.5v9.6
		c-2.4,1.5-5.6,2.2-9.8,2.2c-8.9,0-13.4-4.6-13.4-13.8V185.7z"/>
	<path class="st0" d="M515.9,216.9V176h11.6v6.9c1.2-2.1,3.1-4,5.7-5.6c2.6-1.6,5.5-2.4,8.5-2.4c0.6,0,1,0,1.3,0.1v11.3
		c-1-0.2-2.2-0.4-3.6-0.4c-5.6,0-10.3,3.4-12,7.1v23.9H515.9z"/>
	<path class="st0" d="M554.4,212.1c-4.3-3.9-6.6-9.2-6.6-15.7c0-6.1,2-11.2,5.9-15.3c3.9-4.2,9.1-6.2,15.4-6.2
		c6,0,10.7,2.1,14.2,6.3c3.5,4.2,5.3,9.3,5.3,15.3v3h-29.4c1.2,5.6,6.5,8.5,13.7,8.5c4.6,0,8.9-1.2,13.1-3.6v9.3
		c-3.7,2.8-8.9,4.2-15.6,4.2C564.2,218,558.8,216,554.4,212.1z M577.3,192.2c-0.2-4.5-3.4-8.2-8.6-8.2c-5.2,0-8.8,3.4-9.3,8.2H577.3
		z"/>
</g>
<g>
	<g>
		<polygon class="st1" points="257.1,193.8 300.6,150.3 257.1,106.7 257.1,45.1 195.5,45.1 151.9,1.5 108.3,45.1 46.7,45.1 
			46.7,106.7 3.1,150.3 46.7,193.8 46.7,255.4 108.3,255.4 151.9,299 195.5,255.4 257.1,255.4 		"/>
	</g>
	<g>
		<linearGradient id="SVGID_1_" gradientUnits="userSpaceOnUse" x1="84.8268" y1="76.1274" x2="152.0494" y2="76.1274">
			<stop  offset="0" style="stop-color:#1A4780"/>
			<stop  offset="1" style="stop-color:#1F5292"/>
		</linearGradient>
		<polygon class="st2" points="141.7,45.1 108.3,45.1 84.8,68.6 92.1,90.5 134,107.2 152,65.8 		"/>
		<linearGradient id="SVGID_2_" gradientUnits="userSpaceOnUse" x1="46.7091" y1="116.663" x2="108.8203" y2="116.663">
			<stop  offset="0" style="stop-color:#1A4780"/>
			<stop  offset="1" style="stop-color:#1F5292"/>
		</linearGradient>
		<polygon class="st3" points="70.3,83.1 46.7,106.7 46.7,139.9 67.4,150.3 108.8,132.4 92.3,90.4 		"/>
		<linearGradient id="SVGID_3_" gradientUnits="userSpaceOnUse" x1="46.7091" y1="183.7007" x2="108.8203" y2="183.7007">
			<stop  offset="0" style="stop-color:#1A4780"/>
			<stop  offset="1" style="stop-color:#1F5292"/>
		</linearGradient>
		<polygon class="st4" points="46.7,160.4 46.7,193.8 70.2,217.3 92.1,210 108.8,168.1 67.4,150.1 		"/>
		<linearGradient id="SVGID_4_" gradientUnits="userSpaceOnUse" x1="84.7125" y1="224.3742" x2="151.8881" y2="224.3742">
			<stop  offset="0" style="stop-color:#1A4780"/>
			<stop  offset="1" style="stop-color:#1F5292"/>
		</linearGradient>
		<polygon class="st5" points="84.7,231.8 108.3,255.4 141.5,255.4 151.9,234.7 134,193.3 92,209.9 		"/>
		<linearGradient id="SVGID_5_" gradientUnits="userSpaceOnUse" x1="151.888" y1="224.3742" x2="219.1106" y2="224.3742">
			<stop  offset="0" style="stop-color:#1A4780"/>
			<stop  offset="1" style="stop-color:#1F5292"/>
		</linearGradient>
		<polygon class="st6" points="162.2,255.4 195.6,255.4 219.1,231.9 211.8,210 169.9,193.3 151.9,234.7 		"/>
		<linearGradient id="SVGID_6_" gradientUnits="userSpaceOnUse" x1="195.1172" y1="183.8385" x2="257.2284" y2="183.8385">
			<stop  offset="0" style="stop-color:#1A4780"/>
			<stop  offset="1" style="stop-color:#1F5292"/>
		</linearGradient>
		<polygon class="st7" points="233.6,217.4 257.2,193.8 257.2,160.6 236.5,150.3 195.1,168.1 211.7,210.1 		"/>
		<linearGradient id="SVGID_7_" gradientUnits="userSpaceOnUse" x1="195.1172" y1="116.8008" x2="257.2284" y2="116.8008">
			<stop  offset="0" style="stop-color:#1A4780"/>
			<stop  offset="1" style="stop-color:#1F5292"/>
		</linearGradient>
		<polygon class="st8" points="257.2,140.1 257.2,106.7 233.7,83.2 211.8,90.5 195.1,132.4 236.5,150.4 		"/>
		<linearGradient id="SVGID_8_" gradientUnits="userSpaceOnUse" x1="152.0494" y1="76.1274" x2="219.2249" y2="76.1274">
			<stop  offset="0" style="stop-color:#1A4780"/>
			<stop  offset="1" style="stop-color:#1F5292"/>
		</linearGradient>
		<polygon class="st9" points="219.2,68.7 195.6,45.1 162.4,45.1 152,65.8 169.9,107.2 211.9,90.6 		"/>
	</g>
	<g>
		<g>
			<polygon class="st10" points="133,195.9 88.7,213.4 106.2,169.2 62.5,150.2 106.2,131.3 88.8,87 133,104.6 152.1,60.7 
				170.8,104.6 215.3,87.1 197.7,131.4 241.4,150.3 197.7,169.2 215.2,213.5 171,195.9 151.9,239.8 			"/>
			<g>
				<path class="st1" d="M152,65.8l17.7,41.5l42-16.5l-16.6,41.7l41.2,17.9l-41.2,17.8l16.5,41.8l-41.7-16.6l-18,41.4L134,193.3
					l-41.8,16.5l16.6-41.7l-41.2-17.9l41.2-17.8L92.3,90.6l41.7,16.6L152,65.8 M152.1,55.6l-3.7,8.5L131.9,102L93.8,86.9l-8.6-3.4
					l3.4,8.6l15.1,38.2L66,146.5l-8.5,3.7l8.5,3.7l37.7,16.4l-15.2,38.1l-3.4,8.6l8.6-3.4l38.2-15.1l16.3,37.9l3.7,8.5l3.7-8.5
					l16.5-37.9l38.1,15.2l8.6,3.4l-3.4-8.6l-15.1-38.2l37.7-16.2l8.5-3.7l-8.5-3.7l-37.7-16.4l15.2-38.1l3.4-8.6l-8.6,3.4
					l-38.4,15.1l-16.2-37.9L152.1,55.6L152.1,55.6z"/>
			</g>
		</g>
	</g>
	<polygon class="st01" points="151.9,113 169.7,107.2 178.3,123.9 195,132.4 189.2,150.3 195,168.1 178.3,176.6 169.7,193.3 
		151.9,187.5 134,193.3 125.5,176.6 108.8,168.1 114.6,150.3 108.8,132.4 125.5,123.9 134,107.2 	"/>
</g>
<image style="display:none;overflow:visible;" width="409" height="189" xlink:href="5E38014C.png"  transform="matrix(1.5767 0 0 1.5767 2.455 1)">
</image>
<g>
</g>
<g>
</g>
<g>
</g>
<g>
</g>
<g>
</g>
<g>
</g>
<g>
</g>
<g>
</g>
<g>
</g>
<g>
</g>
<g>
</g>
<g>
</g>
<g>
</g>
<g>
</g>
<g>
</g>
</svg>
