<?xml version="1.0" standalone="no"?>
<!DOCTYPE svg PUBLIC "-//W3C//DTD SVG 20010904//EN"
 "http://www.w3.org/TR/2001/REC-SVG-20010904/DTD/svg10.dtd">
<svg version="1.0" xmlns="http://www.w3.org/2000/svg"
 width="250.000000pt" height="54.000000pt" viewBox="0 0 250.000000 54.000000"
 preserveAspectRatio="xMidYMid meet">

<g transform="translate(0.000000,54.000000) scale(0.100000,-0.100000)"
fill="#000000" stroke="none">
<path d="M165 486 c-89 -39 -139 -117 -139 -216 0 -102 42 -167 134 -209 91
-42 193 -20 261 56 46 51 62 100 57 173 -9 122 -104 210 -227 210 -31 -1 -69
-7 -86 -14z m150 -7 c25 -7 58 -29 86 -58 92 -91 92 -209 -1 -302 -77 -77
-177 -87 -268 -25 -67 45 -95 103 -90 188 5 88 39 141 117 181 59 29 94 33
156 16z"/>
<path d="M158 438 c-61 -38 -98 -103 -98 -170 0 -58 47 -136 95 -159 11 -6 8
0 -7 11 -33 25 -36 40 -9 40 10 0 24 6 30 14 17 20 -17 31 -39 11 -9 -8 -20
-15 -24 -15 -12 0 -36 68 -36 102 0 35 34 118 47 118 17 -1 45 -29 38 -39 -4
-8 2 -8 19 0 23 11 23 13 8 29 -9 10 -26 20 -37 22 -17 4 -15 7 15 26 43 27
124 29 175 5 38 -18 46 -33 17 -33 -11 0 -27 -9 -36 -19 -17 -18 -17 -19 1
-23 10 -2 26 5 35 14 27 27 42 22 61 -17 21 -45 22 -127 1 -166 -13 -26 -18
-29 -32 -18 -9 8 -19 15 -21 16 -2 2 4 12 15 24 18 20 16 19 -17 -2 -34 -22
-36 -25 -21 -41 8 -10 22 -18 30 -18 12 0 12 -3 -3 -20 -25 -28 -80 -43 -137
-38 -29 3 -44 2 -36 -3 24 -16 101 -9 146 12 63 31 102 95 102 169 0 66 -22
112 -74 154 -31 26 -47 31 -104 34 -56 3 -73 -1 -104 -20z"/>
<path d="M225 400 c27 -12 43 -12 25 0 -8 5 -22 9 -30 9 -10 0 -8 -3 5 -9z"/>
<path d="M360 336 c0 -2 8 -10 18 -17 15 -13 16 -12 3 4 -13 16 -21 21 -21 13z"/>
<path d="M183 303 c-9 -23 4 -26 31 -8 27 18 67 17 74 -2 2 -9 -8 -13 -30 -14
l-33 -1 33 -8 c42 -10 50 -18 32 -31 -15 -10 -54 -7 -100 6 -19 6 -22 5 -14
-4 15 -16 84 -25 128 -17 38 7 48 29 19 40 -15 6 -14 8 2 20 18 13 18 14 -3
25 -30 16 -132 12 -139 -6z"/>
<path d="M581 359 c-85 -34 -58 -159 34 -159 48 0 85 36 85 83 0 57 -65 99
-119 76z m71 -55 c13 -28 5 -49 -25 -68 -20 -13 -57 18 -57 49 0 49 62 63 82
19z"/>
<path d="M1634 356 c-35 -15 -44 -32 -44 -81 0 -68 95 -101 145 -50 68 67 -12
170 -101 131z m78 -52 c13 -28 5 -49 -25 -68 -20 -13 -57 18 -57 49 0 49 62
63 82 19z"/>
<path d="M737 353 c-4 -3 -7 -21 -7 -40 0 -26 4 -33 20 -33 21 0 29 34 10 45
-8 5 -7 11 1 21 9 11 8 14 -3 14 -8 0 -18 -3 -21 -7z"/>
<path d="M800 345 c0 -11 11 -15 41 -15 l40 0 -40 -48 c-60 -71 -56 -82 29
-82 64 0 70 2 70 21 0 19 -5 21 -40 17 -22 -2 -40 -2 -40 0 0 2 18 26 40 52
22 26 40 53 40 59 0 7 -25 11 -70 11 -56 0 -70 -3 -70 -15z"/>
<path d="M970 280 c0 -73 2 -80 20 -80 15 0 20 7 20 24 0 29 19 45 31 25 22
-38 37 -51 57 -47 22 3 22 3 -7 47 l-30 44 26 34 c23 29 23 33 7 33 -10 0 -33
-14 -51 -32 l-33 -32 0 32 c0 25 -4 32 -20 32 -18 0 -20 -7 -20 -80z"/>
<path d="M1150 280 c0 -73 2 -80 20 -80 18 0 20 7 20 80 0 73 -2 80 -20 80
-18 0 -20 -7 -20 -80z"/>
<path d="M1220 280 c0 -73 2 -80 20 -80 17 0 20 7 20 45 0 50 10 57 30 20 7
-14 16 -25 20 -25 4 0 13 11 20 25 20 37 30 30 30 -20 0 -38 3 -45 20 -45 18
0 20 7 20 80 0 79 0 80 -25 80 -18 0 -31 -9 -43 -30 -9 -16 -19 -30 -22 -30
-3 0 -13 14 -22 30 -12 21 -25 30 -43 30 -25 0 -25 -1 -25 -80z"/>
<path d="M1430 352 c0 -4 11 -24 25 -44 15 -22 25 -51 25 -72 0 -29 4 -36 20
-36 15 0 20 7 20 26 0 15 14 51 31 80 l30 54 -24 0 c-16 0 -28 -8 -35 -25 -6
-14 -15 -25 -20 -25 -5 0 -14 11 -20 25 -11 23 -52 37 -52 17z"/>
<path d="M1790 280 c0 -73 2 -80 20 -80 16 0 20 7 20 30 0 28 2 30 40 30 54 0
56 27 3 32 -27 2 -39 8 -41 21 -3 14 4 17 42 17 34 0 46 4 46 15 0 12 -14 15
-65 15 l-65 0 0 -80z"/>
<path d="M1956 293 c-16 -37 -30 -74 -33 -80 -3 -8 3 -13 16 -13 12 0 24 7 27
15 4 9 19 15 40 15 22 0 37 -6 40 -15 7 -16 44 -21 44 -6 0 5 -13 40 -29 78
-23 54 -34 69 -53 71 -21 3 -28 -5 -52 -65z m74 -25 c0 -4 -9 -8 -20 -8 -21 0
-24 8 -13 36 6 16 7 16 20 -2 7 -10 13 -21 13 -26z"/>
<path d="M2120 280 c0 -73 2 -80 20 -80 15 0 20 7 20 25 0 15 6 25 14 25 7 0
21 -11 30 -25 9 -14 25 -25 36 -25 24 0 25 4 5 34 -14 21 -14 24 0 36 18 15
20 61 3 78 -7 7 -38 12 -70 12 l-58 0 0 -80z m95 25 c0 -31 -49 -28 -53 3 -3
20 0 23 25 20 20 -2 28 -8 28 -23z"/>
<path d="M2290 280 c0 -73 2 -80 20 -80 17 0 20 7 20 45 0 50 10 57 30 20 7
-14 16 -25 20 -25 4 0 13 11 20 25 20 37 30 30 30 -20 0 -38 3 -45 20 -45 18
0 20 7 20 80 0 78 -1 80 -24 80 -16 0 -32 -11 -47 -31 l-21 -30 -19 30 c-13
21 -27 31 -44 31 -25 0 -25 -1 -25 -80z"/>
</g>
</svg>
