<?xml version="1.0" encoding="UTF-8"?>
<!DOCTYPE svg PUBLIC "-//W3C//DTD SVG 1.1//EN" "http://www.w3.org/Graphics/SVG/1.1/DTD/svg11.dtd">
<!-- Creator: CorelDRAW 2020 (64-Bit) -->
<svg xmlns="http://www.w3.org/2000/svg" xml:space="preserve" width="122px" height="122px" version="1.1" style="shape-rendering:geometricPrecision; text-rendering:geometricPrecision; image-rendering:optimizeQuality; fill-rule:evenodd; clip-rule:evenodd"
viewBox="0 0 122 122"
 xmlns:xlink="http://www.w3.org/1999/xlink"
 xmlns:xodm="http://www.corel.com/coreldraw/odm/2003">
 <defs>
  <style type="text/css">
   <![CDATA[
    .fil3 {fill:#1D1D1B}
    .fil0 {fill:#203864}
    .fil2 {fill:white}
    .fil1 {fill:#FEFEFE;fill-rule:nonzero}
   ]]>
  </style>
 </defs>
 <g id="Слой_x0020_1">
  <metadata id="CorelCorpID_0Corel-Layer"/>
  <g id="_870636608">
   <path class="fil0" d="M61.156 0.996c-33.16,-0.086 -60.105,26.738 -60.16,59.898 -0.059,33.161 26.789,60.082 59.95,60.11 33.16,0.031 60.058,-26.844 60.058,-60.004 0.044,-33.094 -26.75,-59.961 -59.848,-60.004zm-0.167 105.766c-19.008,0.051 -36.172,-11.364 -43.477,-28.915 -7.305,-17.547 -3.309,-37.769 10.121,-51.222 13.434,-13.45 33.649,-17.477 51.211,-10.2 17.559,7.281 28.996,24.43 28.973,43.438 0.008,25.875 -20.949,46.863 -46.828,46.899zm0 0z"/>
   <path class="fil1" d="M7.16 63.675l-0.09 -1.218 1.882 0.946 1.719 -1.211 0.09 1.218 -1.708 1.37 -1.893 -1.105zm0.148 2.017l-0.089 -1.216 1.881 0.947 1.719 -1.211 0.091 1.215 -1.709 1.374 -1.893 -1.109z"/>
   <path id="1" class="fil1" d="M7.939 61.224c-0.934,-0.034 -1.651,-0.322 -2.152,-0.862 -0.501,-0.541 -0.733,-1.275 -0.699,-2.204 0.038,-0.952 0.32,-1.675 0.851,-2.171 0.531,-0.496 1.257,-0.726 2.177,-0.692 0.669,0.027 1.213,0.159 1.633,0.401 0.419,0.241 0.739,0.578 0.961,1.013 0.222,0.434 0.322,0.968 0.297,1.603 -0.025,0.645 -0.147,1.176 -0.369,1.59 -0.222,0.416 -0.559,0.746 -1.015,0.993 -0.455,0.244 -1.016,0.355 -1.684,0.329zm0.074 -1.766c0.578,0.022 0.997,-0.07 1.258,-0.276 0.26,-0.205 0.397,-0.492 0.41,-0.861 0.015,-0.38 -0.097,-0.679 -0.336,-0.896 -0.239,-0.218 -0.679,-0.338 -1.319,-0.363 -0.539,-0.02 -0.936,0.073 -1.193,0.281 -0.256,0.208 -0.392,0.498 -0.406,0.87 -0.013,0.356 0.102,0.647 0.346,0.873 0.245,0.225 0.658,0.349 1.24,0.372z"/>
   <path id="2" class="fil1" d="M8.723 52.774l-0.2 1.685 -1.298 -0.154c-0.479,-0.056 -0.844,-0.201 -1.097,-0.432 -0.253,-0.233 -0.456,-0.604 -0.611,-1.111l0.733 -0.283c0.105,0.314 0.219,0.536 0.344,0.666 0.124,0.13 0.28,0.212 0.467,0.249l0.097 -0.807 1.565 0.187z"/>
   <polygon id="3" class="fil1" points="5.751,51.215 6.773,46.315 7.892,46.549 10.516,50.373 11.196,47.117 12.399,47.368 11.292,52.685 10.128,52.443 7.532,48.659 6.948,51.464 "/>
   <path id="4" class="fil1" d="M10.695 46.263l0.447 -1.626c0.271,0.055 0.491,0.052 0.664,-0.008 0.278,-0.096 0.471,-0.305 0.582,-0.624 0.082,-0.24 0.089,-0.444 0.021,-0.611 -0.067,-0.167 -0.175,-0.277 -0.322,-0.328 -0.14,-0.048 -0.287,-0.029 -0.441,0.055 -0.152,0.086 -0.355,0.335 -0.607,0.75 -0.418,0.677 -0.816,1.124 -1.198,1.344 -0.38,0.221 -0.783,0.259 -1.206,0.113 -0.28,-0.096 -0.514,-0.267 -0.706,-0.513 -0.192,-0.247 -0.303,-0.556 -0.333,-0.928 -0.03,-0.372 0.05,-0.841 0.245,-1.405 0.237,-0.691 0.548,-1.174 0.929,-1.449 0.382,-0.275 0.866,-0.351 1.451,-0.226l-0.449 1.608c-0.258,-0.042 -0.467,-0.014 -0.624,0.082 -0.156,0.096 -0.275,0.262 -0.357,0.498 -0.066,0.195 -0.075,0.356 -0.026,0.482 0.048,0.127 0.131,0.21 0.249,0.251 0.087,0.03 0.178,0.016 0.276,-0.042 0.097,-0.053 0.228,-0.218 0.391,-0.493 0.41,-0.676 0.748,-1.146 1.019,-1.406 0.27,-0.262 0.548,-0.423 0.837,-0.486 0.288,-0.061 0.58,-0.041 0.875,0.061 0.347,0.119 0.635,0.326 0.862,0.618 0.227,0.292 0.356,0.637 0.39,1.034 0.033,0.396 -0.041,0.857 -0.221,1.382 -0.316,0.92 -0.713,1.497 -1.189,1.73 -0.477,0.232 -0.996,0.277 -1.559,0.137z"/>
   <path id="5" class="fil1" d="M15.035 37.514l-0.831 1.836 0.746 0.642 -0.746 1.647 -4.325 -4.322 0.795 -1.756 6.102 0.402 -0.765 1.686 -0.976 -0.135zm-1.28 -0.172l-2.134 -0.274 1.614 1.422 0.52 -1.148z"/>
   <polygon id="6" class="fil1" points="12.294,32.309 13.201,30.929 17.029,30.865 14.383,29.129 15.298,27.736 20.079,30.876 19.165,32.269 15.362,32.336 17.988,34.061 17.075,35.45 "/>
   <path id="7" class="fil1" d="M18.383 28.25c-0.723,-0.592 -1.121,-1.254 -1.194,-1.987 -0.073,-0.733 0.186,-1.459 0.776,-2.177 0.603,-0.737 1.266,-1.143 1.988,-1.217 0.722,-0.074 1.44,0.181 2.153,0.765 0.517,0.423 0.869,0.859 1.059,1.304 0.188,0.445 0.238,0.908 0.154,1.388 -0.087,0.481 -0.33,0.966 -0.732,1.457 -0.409,0.5 -0.828,0.848 -1.255,1.044 -0.427,0.197 -0.896,0.257 -1.407,0.177 -0.511,-0.078 -1.025,-0.329 -1.542,-0.754zm1.127 -1.362c0.447,0.365 0.836,0.545 1.168,0.539 0.33,-0.006 0.614,-0.152 0.848,-0.437 0.24,-0.294 0.332,-0.6 0.272,-0.918 -0.059,-0.317 -0.336,-0.679 -0.832,-1.085 -0.417,-0.342 -0.79,-0.507 -1.12,-0.497 -0.33,0.012 -0.613,0.16 -0.848,0.448 -0.226,0.276 -0.311,0.577 -0.252,0.904 0.059,0.328 0.313,0.676 0.764,1.046z"/>
   <path id="8" class="fil1" d="M26.78 21.92l-1.448 1.401 0.457 0.872 -1.301 1.256 -2.429 -5.611 1.386 -1.341 5.524 2.621 -1.33 1.287 -0.859 -0.485zm-1.126 -0.631l-1.885 -1.041 0.977 1.917 0.908 -0.876z"/>
   <polygon id="9" class="fil1" points="25.235,16.921 29.479,13.621 30.347,14.737 28.922,15.845 31.569,19.247 30.173,20.333 27.527,16.931 26.103,18.037 "/>
   <path id="10" class="fil1" d="M37.511 14.673c0.267,0.029 0.44,0.044 0.519,0.045 0.116,0.002 0.268,-0.005 0.455,-0.021l0.044 1.106c-0.275,0.014 -0.557,0.006 -0.849,-0.023 -0.292,-0.028 -0.5,-0.057 -0.624,-0.084 -0.262,0.337 -0.651,0.646 -1.166,0.928 -0.764,0.418 -1.475,0.548 -2.131,0.392 -0.779,-0.186 -1.402,-0.704 -1.866,-1.557 -0.453,-0.826 -0.577,-1.593 -0.372,-2.301 0.206,-0.706 0.716,-1.283 1.534,-1.731 0.833,-0.456 1.6,-0.583 2.299,-0.385 0.698,0.2 1.274,0.716 1.731,1.55 0.405,0.743 0.548,1.436 0.426,2.081zm-1.623 -0.144c0.001,-0.288 -0.118,-0.654 -0.36,-1.095 -0.277,-0.507 -0.569,-0.816 -0.876,-0.931 -0.306,-0.114 -0.627,-0.081 -0.958,0.101 -0.308,0.169 -0.498,0.417 -0.568,0.743 -0.071,0.326 0.023,0.724 0.28,1.195 0.3,0.549 0.604,0.882 0.913,1.001 0.308,0.119 0.625,0.089 0.952,-0.089 0.106,-0.058 0.199,-0.122 0.282,-0.194 -0.2,-0.055 -0.469,-0.061 -0.812,-0.019l-0.063 -0.692c0.151,-0.049 0.275,-0.077 0.371,-0.082 0.097,-0.005 0.299,0.009 0.605,0.042 0.072,0.009 0.15,0.015 0.234,0.02z"/>
   <path id="11" class="fil1" d="M40.553 7.936l1.63 -0.675 1.305 3.152c0.129,0.313 0.203,0.628 0.22,0.946 0.018,0.318 -0.034,0.624 -0.156,0.918 -0.121,0.295 -0.279,0.53 -0.473,0.71 -0.268,0.249 -0.624,0.465 -1.071,0.65 -0.256,0.106 -0.544,0.205 -0.863,0.295 -0.319,0.089 -0.603,0.123 -0.853,0.101 -0.247,-0.023 -0.498,-0.097 -0.75,-0.224 -0.25,-0.127 -0.451,-0.282 -0.599,-0.465 -0.24,-0.295 -0.416,-0.573 -0.523,-0.833l-1.306 -3.152 1.631 -0.674 1.337 3.227c0.12,0.288 0.293,0.481 0.52,0.578 0.227,0.095 0.482,0.084 0.766,-0.033 0.281,-0.117 0.469,-0.288 0.562,-0.515 0.094,-0.225 0.081,-0.484 -0.041,-0.778l-1.336 -3.228z"/>
   <path id="12" class="fil1" d="M45.512 12.161l-1.407 -5.546 2.857 -0.726c0.53,-0.134 0.946,-0.191 1.249,-0.171 0.302,0.02 0.571,0.131 0.806,0.334 0.233,0.201 0.395,0.479 0.485,0.832 0.078,0.308 0.079,0.59 0.005,0.847 -0.075,0.257 -0.21,0.484 -0.404,0.68 -0.123,0.126 -0.306,0.25 -0.545,0.372 0.221,0.016 0.387,0.047 0.498,0.092 0.074,0.028 0.19,0.102 0.348,0.22 0.158,0.119 0.266,0.214 0.327,0.284l1.237 1.398 -1.937 0.492 -1.345 -1.463c-0.172,-0.191 -0.312,-0.306 -0.419,-0.35 -0.145,-0.054 -0.297,-0.062 -0.454,-0.021l-0.15 0.038 0.57 2.251 -1.721 0.437zm0.885 -3.736l0.723 -0.183c0.077,-0.021 0.223,-0.084 0.434,-0.19 0.107,-0.053 0.185,-0.134 0.234,-0.245 0.049,-0.112 0.057,-0.228 0.026,-0.35 -0.045,-0.179 -0.137,-0.302 -0.275,-0.368 -0.138,-0.068 -0.363,-0.061 -0.676,0.018l-0.752 0.19 0.286 1.128z"/>
   <polygon id="13" class="fil1" points="50.62,5.048 52.368,4.743 53.351,10.384 51.604,10.688 "/>
   <polygon id="14" class="fil1" points="54.184,4.442 55.947,4.312 56.264,8.614 59.017,8.412 59.12,9.818 54.603,10.15 "/>
   <polygon id="15" class="fil1" points="60.037,4.092 61.81,4.103 61.772,9.829 59.999,9.818 "/>
   <path id="16" class="fil1" d="M62.871 7.928l1.685 0.016c0.017,0.275 0.076,0.487 0.178,0.638 0.164,0.244 0.416,0.378 0.754,0.403 0.25,0.018 0.449,-0.027 0.593,-0.135 0.146,-0.108 0.224,-0.241 0.234,-0.396 0.011,-0.148 -0.044,-0.285 -0.166,-0.412 -0.121,-0.125 -0.414,-0.258 -0.879,-0.395 -0.761,-0.229 -1.295,-0.501 -1.604,-0.812 -0.312,-0.312 -0.451,-0.692 -0.419,-1.137 0.021,-0.294 0.125,-0.566 0.314,-0.814 0.189,-0.248 0.459,-0.434 0.811,-0.56 0.353,-0.125 0.826,-0.165 1.42,-0.123 0.729,0.053 1.276,0.229 1.639,0.528 0.363,0.298 0.56,0.746 0.591,1.343l-1.669 -0.022c-0.027,-0.26 -0.106,-0.454 -0.239,-0.581 -0.133,-0.126 -0.324,-0.2 -0.574,-0.217 -0.204,-0.015 -0.362,0.017 -0.472,0.097 -0.11,0.08 -0.169,0.181 -0.179,0.305 -0.006,0.091 0.031,0.176 0.112,0.256 0.076,0.08 0.269,0.165 0.576,0.252 0.758,0.222 1.299,0.43 1.62,0.624 0.322,0.194 0.549,0.422 0.682,0.685 0.134,0.263 0.19,0.55 0.167,0.861 -0.026,0.365 -0.151,0.696 -0.377,0.989 -0.224,0.296 -0.524,0.509 -0.898,0.643 -0.375,0.134 -0.839,0.18 -1.392,0.139 -0.971,-0.069 -1.63,-0.304 -1.976,-0.704 -0.347,-0.401 -0.525,-0.892 -0.532,-1.471z"/>
   <polygon id="17" class="fil1" points="70.143,4.763 71.864,5.173 71.4,7.121 73.28,7.569 73.744,5.619 75.472,6.032 74.146,11.599 72.418,11.187 72.954,8.936 71.074,8.488 70.539,10.74 68.817,10.33 "/>
   <polygon id="18" class="fil1" points="77.408,6.475 79.57,7.33 79.126,10.898 81.237,7.989 83.393,8.84 81.29,14.162 79.947,13.631 81.551,9.573 78.905,13.219 77.689,12.739 78.254,8.27 76.651,12.329 75.305,11.797 "/>
   <path id="19" class="fil1" d="M85.891 15.419l-1.785 -0.938 -0.685 0.709 -1.602 -0.842 4.57 -4.068 1.71 0.897 -0.759 6.071 -1.64 -0.861 0.191 -0.968zm0.248 -1.268l0.397 -2.118 -1.515 1.531 1.118 0.587z"/>
   <polygon id="20" class="fil1" points="90.202,12.395 94.642,15.43 93.844,16.597 92.355,15.578 89.921,19.138 88.46,18.14 90.894,14.579 89.404,13.562 "/>
   <polygon id="21" class="fil1" points="95.729,16.308 99.344,19.377 98.552,20.309 96.29,18.387 95.7,19.081 97.8,20.863 97.044,21.752 94.944,19.972 94.214,20.832 96.542,22.808 95.703,23.797 92.024,20.673 "/>
   <path id="22" class="fil1" d="M96.388 24.509l4.291 -3.788 1.95 2.21c0.362,0.409 0.603,0.754 0.725,1.031 0.119,0.28 0.144,0.57 0.071,0.869 -0.073,0.301 -0.247,0.572 -0.519,0.814 -0.238,0.21 -0.489,0.34 -0.751,0.39 -0.262,0.052 -0.526,0.036 -0.789,-0.047 -0.168,-0.052 -0.362,-0.158 -0.581,-0.315 0.087,0.204 0.136,0.366 0.147,0.485 0.008,0.08 -0.004,0.216 -0.039,0.411 -0.033,0.195 -0.067,0.335 -0.101,0.42l-0.678 1.74 -1.324 -1.498 0.687 -1.867c0.089,-0.239 0.13,-0.416 0.119,-0.531 -0.018,-0.155 -0.081,-0.292 -0.187,-0.413l-0.105 -0.116 -1.741 1.536 -1.175 -1.331zm3.728 -0.922l0.493 0.559c0.054,0.062 0.177,0.161 0.368,0.3 0.096,0.072 0.204,0.104 0.326,0.096 0.121,-0.009 0.228,-0.053 0.322,-0.136 0.138,-0.122 0.205,-0.26 0.202,-0.413 -0.004,-0.154 -0.112,-0.352 -0.325,-0.593l-0.515 -0.582 -0.871 0.769z"/>
   <polygon id="23" class="fil1" points="105.052,25.885 106.105,27.312 101.497,30.714 100.444,29.288 "/>
   <path id="24" class="fil1" d="M104.899 34.263l-1.028 -1.734 -0.954 0.243 -0.923 -1.556 6.024 -1.07 0.984 1.662 -3.829 4.772 -0.944 -1.593 0.67 -0.724zm0.877 -0.951l1.448 -1.594 -2.092 0.508 0.644 1.086z"/>
   <polygon id="25" class="fil1" points="110.633,34.677 111.377,36.281 107.463,38.094 108.623,40.598 107.344,41.19 105.44,37.082 "/>
   <polygon id="26" class="fil1" points="113.051,40.186 113.6,41.868 109.497,43.206 110.354,45.831 109.013,46.269 107.608,41.962 "/>
   <path id="27" class="fil1" d="M110.926 50.29l-0.413 -1.972 -0.982 -0.078 -0.37 -1.769 6.044 0.934 0.395 1.888 -5.164 3.278 -0.378 -1.812 0.868 -0.469zm1.135 -0.616l1.885 -1.04 -2.143 -0.194 0.258 1.234z"/>
   <path id="28" class="fil1" d="M110.442 53.174l5.695 -0.563 0.289 2.933c0.054,0.544 0.049,0.964 -0.016,1.261 -0.065,0.297 -0.216,0.546 -0.45,0.746 -0.235,0.202 -0.535,0.321 -0.897,0.356 -0.316,0.031 -0.595,-0.01 -0.838,-0.122 -0.242,-0.111 -0.446,-0.278 -0.613,-0.5 -0.104,-0.141 -0.2,-0.339 -0.285,-0.596 -0.05,0.218 -0.103,0.377 -0.164,0.48 -0.042,0.07 -0.131,0.173 -0.272,0.311 -0.14,0.138 -0.251,0.232 -0.329,0.282l-1.567 1.013 -0.196 -1.988 1.647 -1.112c0.214,-0.142 0.349,-0.262 0.407,-0.363 0.076,-0.135 0.106,-0.283 0.091,-0.443l-0.016 -0.156 -2.312 0.229 -0.174 -1.768zm3.562 1.433l0.073 0.742c0.007,0.08 0.049,0.233 0.124,0.458 0.034,0.114 0.103,0.205 0.207,0.268 0.103,0.065 0.217,0.091 0.341,0.078 0.183,-0.018 0.319,-0.09 0.406,-0.216 0.086,-0.127 0.114,-0.35 0.083,-0.671l-0.076 -0.773 -1.158 0.114z"/>
   <polygon id="29" class="fil1" points="116.59,59.558 116.55,61.331 110.828,61.2 110.867,59.429 "/>
   <path id="30" class="fil1" d="M114.555 63.892l0.101 -1.217 -1.889 0.928 -1.708 -1.226 -0.101 1.216 1.695 1.386 1.902 -1.087zm-0.167 2.015l0.101 -1.214 -1.889 0.928 -1.708 -1.227 -0.1 1.214 1.693 1.389 1.903 -1.09z"/>
  </g>
  <g id="_870636704">
   <path class="fil2" d="M36.818 106.03l1.66 0.754 -1.082 2.374c-0.117,0.184 -0.176,0.403 -0.156,0.617 0.055,0.169 0.179,0.301 0.343,0.364 0.188,0.09 0.403,0.09 0.59,0 0.262,-0.18 0.462,-0.438 0.567,-0.734l0.98 -2.082 1.649 0.757 -1.961 4.317 -1.539 -0.657 0.312 -0.699c-0.3,0.172 -0.636,0.274 -0.98,0.297 -0.34,0.016 -0.676,-0.055 -0.981,-0.207 -0.41,-0.156 -0.73,-0.48 -0.882,-0.894 -0.129,-0.485 -0.067,-1.001 0.175,-1.442l1.305 -2.765zm0 0z"/>
   <path class="fil2" d="M41.556 108.225l1.817 0.601 -0.059 3.305 1.852 -2.707 1.699 0.559 -3.375 4.23c-0.258,0.367 -0.594,0.676 -0.981,0.903 -0.484,0.183 -1.019,0.183 -1.5,0 -0.382,-0.141 -0.758,-0.301 -1.121,-0.481l0.266 -1.246c0.246,0.164 0.512,0.297 0.793,0.39 0.172,0.059 0.359,0.059 0.531,0 0.199,-0.082 0.367,-0.218 0.492,-0.39l-0.414 -5.164zm0 0z"/>
   <path class="fil2" d="M47.158 110.061l1.785 0.394 -0.547 2.551c-0.074,0.207 -0.074,0.437 0,0.645 0.09,0.156 0.246,0.257 0.422,0.285 0.199,0.051 0.41,0.004 0.566,-0.125 0.219,-0.231 0.356,-0.524 0.395,-0.836l0.48 -2.238 1.778 0.382 -0.985 4.641 -1.656 -0.352 0.157 -0.754c-0.258,0.223 -0.555,0.395 -0.883,0.5 -0.321,0.079 -0.661,0.079 -0.981,0 -0.433,-0.066 -0.816,-0.316 -1.051,-0.687 -0.223,-0.449 -0.269,-0.965 -0.125,-1.442l0.645 -2.964zm0 0z"/>
   <path class="fil2" d="M54.97 111.365c0.419,0.028 0.832,0.118 1.227,0.266 0.242,0.106 0.457,0.266 0.625,0.473 0.176,0.234 0.297,0.5 0.363,0.785l-1.726 0c-0.016,-0.137 -0.082,-0.266 -0.188,-0.356 -0.14,-0.117 -0.316,-0.191 -0.5,-0.207 -0.152,-0.027 -0.308,-0.004 -0.449,0.059 -0.098,0.055 -0.16,0.148 -0.176,0.258 -0.012,0.113 0.051,0.223 0.156,0.273 0.235,0.121 0.485,0.203 0.746,0.246 0.454,0.086 0.895,0.231 1.313,0.43 0.254,0.137 0.465,0.34 0.609,0.59 0.133,0.234 0.188,0.508 0.157,0.773 -0.035,0.286 -0.149,0.551 -0.333,0.766 -0.222,0.258 -0.515,0.441 -0.843,0.531 -0.477,0.121 -0.977,0.145 -1.461,0.07 -0.641,-0.015 -1.266,-0.214 -1.797,-0.57 -0.34,-0.277 -0.551,-0.68 -0.59,-1.117l1.817 0.047c0.031,0.188 0.121,0.359 0.253,0.492 0.149,0.117 0.333,0.184 0.52,0.196 0.199,0.038 0.402,0.007 0.578,-0.09 0.11,-0.051 0.18,-0.157 0.188,-0.274 0.015,-0.133 -0.051,-0.262 -0.168,-0.324 -0.243,-0.113 -0.496,-0.203 -0.754,-0.274 -0.438,-0.113 -0.864,-0.261 -1.274,-0.441 -0.238,-0.121 -0.433,-0.308 -0.562,-0.539 -0.145,-0.234 -0.207,-0.512 -0.176,-0.785 0.027,-0.293 0.156,-0.567 0.363,-0.777 0.223,-0.211 0.497,-0.356 0.797,-0.422 0.426,-0.071 0.864,-0.071 1.293,0l-0.008 -0.079zm0 0z"/>
   <path class="fil2" d="M58.185 109.983l1.809 0 0 2.414c0.211,-0.227 0.465,-0.406 0.742,-0.539 0.273,-0.118 0.571,-0.176 0.863,-0.168 0.438,-0.024 0.86,0.144 1.16,0.461 0.313,0.39 0.461,0.886 0.423,1.382l0 3.024 -1.844 0 0 -2.609c0.019,-0.227 -0.036,-0.45 -0.16,-0.637 -0.122,-0.129 -0.294,-0.196 -0.469,-0.188 -0.207,-0.008 -0.403,0.082 -0.531,0.246 -0.164,0.27 -0.239,0.586 -0.215,0.903l0 2.273 -1.817 0 0 -6.543 0.039 -0.019zm0 0z"/>
   <path class="fil2" d="M67.135 111.307c0.308,-0.055 0.628,-0.027 0.921,0.09 0.25,0.109 0.462,0.289 0.61,0.519 0.183,-0.285 0.418,-0.531 0.695,-0.726 0.254,-0.153 0.539,-0.25 0.836,-0.286 0.434,-0.074 0.883,0.036 1.235,0.305 0.371,0.352 0.589,0.836 0.609,1.344l0.39 2.945 -1.804 0.242 -0.352 -2.687c-0.012,-0.168 -0.078,-0.324 -0.187,-0.449 -0.121,-0.141 -0.301,-0.211 -0.481,-0.188 -0.195,0.02 -0.371,0.129 -0.48,0.293 -0.117,0.239 -0.153,0.508 -0.098,0.766l0.324 2.434 -1.805 0.234 -0.343 -2.59c-0.012,-0.145 -0.043,-0.285 -0.09,-0.422 -0.051,-0.106 -0.133,-0.195 -0.234,-0.254 -0.106,-0.054 -0.227,-0.082 -0.344,-0.07 -0.2,0.019 -0.379,0.133 -0.481,0.305 -0.129,0.246 -0.16,0.527 -0.097,0.796l0.312 2.403 -1.804 0.234 -0.618 -4.699 1.676 -0.223 0.09 0.684c0.168,-0.277 0.391,-0.516 0.656,-0.707 0.262,-0.168 0.555,-0.27 0.864,-0.301l0 0.008zm0 0z"/>
   <path class="fil2" d="M76.17 112.112c-0.215,0.148 -0.442,0.292 -0.688,0.433 -0.23,0.11 -0.433,0.27 -0.597,0.469 -0.067,0.109 -0.086,0.238 -0.059,0.363 0.031,0.129 0.117,0.235 0.234,0.293 0.149,0.063 0.317,0.063 0.461,0 0.192,-0.055 0.367,-0.156 0.512,-0.293 0.129,-0.117 0.219,-0.27 0.254,-0.441 0.047,-0.188 0.047,-0.383 0,-0.57l-0.117 -0.254zm-1.512 -2.278c0.422,-0.125 0.852,-0.215 1.289,-0.262 0.305,-0.035 0.613,0.016 0.891,0.145 0.203,0.105 0.375,0.262 0.5,0.453 0.148,0.192 0.258,0.414 0.324,0.649l0.551 2.019c0.039,0.168 0.097,0.332 0.176,0.492 0.09,0.149 0.195,0.289 0.312,0.422l-1.649 0.449c-0.074,-0.07 -0.14,-0.148 -0.195,-0.234 -0.058,-0.086 -0.105,-0.18 -0.148,-0.277 -0.141,0.254 -0.324,0.48 -0.547,0.668 -0.297,0.222 -0.629,0.386 -0.98,0.492 -0.434,0.164 -0.915,0.164 -1.348,0 -0.336,-0.16 -0.586,-0.461 -0.676,-0.824 -0.105,-0.325 -0.082,-0.676 0.07,-0.981 0.238,-0.363 0.579,-0.641 0.981,-0.805 0.617,-0.316 0.98,-0.531 1.195,-0.628 0.199,-0.118 0.387,-0.243 0.571,-0.383 -0.032,-0.168 -0.126,-0.32 -0.266,-0.422 -0.16,-0.062 -0.34,-0.062 -0.5,0 -0.227,0.051 -0.438,0.164 -0.609,0.324 -0.106,0.137 -0.161,0.309 -0.157,0.481l-1.726 0.273c-0.016,-0.258 0.015,-0.516 0.09,-0.766 0.085,-0.218 0.218,-0.414 0.39,-0.578 0.184,-0.156 0.391,-0.285 0.61,-0.383 0.285,-0.136 0.585,-0.242 0.894,-0.324l-0.043 0zm0 0z"/>
   <path class="fil2" d="M79.9 108.08c0.383,-0.172 0.789,-0.285 1.207,-0.344 0.262,-0.015 0.527,0.028 0.774,0.129 0.258,0.13 0.492,0.305 0.687,0.52l-1.539 0.793c-0.078,-0.117 -0.199,-0.196 -0.336,-0.227 -0.172,-0.051 -0.355,-0.051 -0.527,0 -0.156,0.051 -0.289,0.145 -0.383,0.278 -0.051,0.089 -0.051,0.199 0,0.293 0.039,0.109 0.145,0.179 0.262,0.176 0.265,-0.008 0.527,-0.055 0.777,-0.137 0.442,-0.133 0.902,-0.207 1.363,-0.227 0.29,0.004 0.571,0.086 0.813,0.238 0.223,0.149 0.391,0.36 0.492,0.606 0.098,0.269 0.117,0.559 0.059,0.836 -0.075,0.328 -0.246,0.629 -0.493,0.863 -0.367,0.328 -0.796,0.582 -1.265,0.746 -0.574,0.285 -1.223,0.399 -1.863,0.332 -0.426,-0.089 -0.801,-0.347 -1.039,-0.715l1.617 -0.824c0.109,0.152 0.269,0.266 0.453,0.313 0.183,0.039 0.379,0.015 0.551,-0.067 0.191,-0.062 0.355,-0.187 0.468,-0.355 0.055,-0.102 0.055,-0.223 0,-0.324 -0.05,-0.121 -0.172,-0.2 -0.304,-0.203 -0.266,0.007 -0.532,0.047 -0.793,0.105 -0.438,0.106 -0.887,0.176 -1.336,0.207 -0.262,0 -0.524,-0.074 -0.746,-0.215 -0.235,-0.144 -0.415,-0.363 -0.508,-0.621 -0.098,-0.273 -0.098,-0.574 0,-0.851 0.093,-0.294 0.273,-0.551 0.508,-0.746 0.344,-0.27 0.726,-0.485 1.14,-0.629l-0.039 0.05zm0 0z"/>
   <path class="fil2" d="M83.017 106.834l1.629 -0.804 2.083 4.257 -1.629 0.805 -2.083 -4.258zm-0.793 -1.629l1.637 -0.797 0.543 1.11 -1.629 0.804 -0.551 -1.117zm0 0z"/>
  </g>
  <path class="fil3" d="M52.366 96.606l8.067 4.652 36.32 -20.976 0.008 -9.313 -44.395 25.637zm0 0z"/>
  <path class="fil3" d="M92.722 36.024l4.031 2.324 0 4.652 0.008 9.329 -0.008 9.312 -52.461 30.285 -8.067 -4.648 52.364 -30.231 -0.008 -9.328 -60.437 34.887 -4.032 -2.324 0.008 -4.653 -0.008 -9.328 0.008 -9.312 52.461 -30.286 8.063 4.641 -52.372 30.238 0.012 9.329 60.438 -34.887zm0 0z"/>
  <path class="fil3" d="M68.495 22.023l-8.062 -4.64 -36.321 20.965 0 9.312 44.383 -25.637zm0 0z"/>
 </g>
</svg>
